<?xml version="1.0" standalone="no"?>
<!DOCTYPE svg PUBLIC "-//W3C//DTD SVG 20010904//EN"
 "http://www.w3.org/TR/2001/REC-SVG-20010904/DTD/svg10.dtd">
<svg version="1.0" xmlns="http://www.w3.org/2000/svg"
 width="500.000000pt" height="500.000000pt" viewBox="0 0 500.000000 500.000000"
 preserveAspectRatio="xMidYMid meet">
<metadata>
Created by potrace 1.16, written by Peter Selinger 2001-2019
</metadata>
<g transform="translate(0.000000,500.000000) scale(0.100000,-0.100000)"
fill="#000000" stroke="none">
<path d="M0 2500 l0 -2500 2500 0 2500 0 0 2500 0 2500 -2500 0 -2500 0 0
-2500z m1667 380 c10 0 33 -66 33 -95 0 -32 -2 -35 -30 -35 -26 0 -30 4 -30
28 0 38 -13 54 -41 50 l-24 -3 0 -145 0 -145 24 -3 c29 -5 41 12 41 61 0 34 2
37 30 37 29 0 30 -2 30 -45 0 -51 -20 -99 -45 -109 -9 -3 -36 -6 -59 -6 -33 0
-48 6 -67 26 -23 25 -24 30 -24 184 0 153 1 159 24 184 26 28 61 35 106 24 16
-5 31 -8 32 -8z m470 0 c7 0 33 -62 33 -80 0 -15 -6 -20 -29 -20 -22 0 -30 6
-35 25 -5 18 -13 25 -31 25 -53 0 -36 -83 27 -128 29 -21 68 -96 68 -131 0
-38 -23 -86 -45 -95 -9 -3 -36 -6 -59 -6 -54 0 -85 30 -89 86 -2 37 -1 39 28
39 25 0 31 -5 35 -30 4 -24 10 -30 30 -30 21 0 26 5 28 32 3 28 -5 41 -46 85
-62 67 -72 86 -72 141 0 77 49 114 125 95 16 -5 31 -8 32 -8z m-224 -162 c15
-95 30 -190 34 -211 l6 -38 -34 3 c-30 3 -35 7 -39 38 -5 32 -8 35 -43 38 -39
3 -40 2 -51 -50 -5 -23 -12 -28 -36 -28 -26 0 -30 3 -25 23 2 12 16 96 30 187
36 232 27 210 83 210 l48 0 27 -172z m477 142 c0 -28 -3 -30 -35 -30 l-35 0 0
-180 0 -180 -30 0 -30 0 0 180 0 180 -35 0 c-32 0 -35 2 -35 30 l0 30 100 0
100 0 0 -30z m184 3 c3 -16 17 -100 31 -188 14 -88 27 -170 30 -182 5 -20 2
-23 -29 -23 -32 0 -35 2 -41 40 -7 39 -8 40 -46 40 -38 0 -39 -1 -45 -40 -6
-36 -10 -40 -35 -40 -16 0 -29 3 -29 8 0 4 14 98 32 210 l32 202 47 0 c44 0
48 -2 53 -27z m186 -15 c32 -120 50 -181 55 -186 3 -3 5 47 5 111 l0 117 30 0
30 0 0 -211 0 -210 -37 3 -37 3 -37 135 -38 135 0 -137 -1 -138 -30 0 -30 0 0
210 0 210 40 0 c38 0 40 -2 50 -42z m328 22 c29 -27 34 -65 30 -218 -3 -122
-5 -132 -27 -156 -19 -20 -34 -26 -67 -26 -93 0 -104 22 -104 210 0 142 10
190 42 203 34 14 105 6 126 -13z m722 -275 l0 -115 -110 0 -110 0 0 115 0 115
110 0 110 0 0 -115z m0 -270 l0 -115 -110 0 -110 0 0 115 0 115 110 0 110 0 0
-115z m280 0 l0 -115 -115 0 -115 0 0 115 0 115 115 0 115 0 0 -115z m-3303
55 c10 0 33 -66 33 -95 0 -32 -2 -35 -30 -35 -26 0 -30 4 -30 28 0 38 -13 54
-41 50 l-24 -3 0 -145 0 -145 24 -3 c29 -5 41 12 41 61 0 34 2 37 30 37 29 0
30 -2 30 -45 0 -51 -20 -99 -45 -109 -9 -3 -36 -6 -59 -6 -33 0 -48 6 -67 26
-23 25 -24 30 -24 184 0 153 1 159 24 184 26 28 61 35 106 24 16 -5 31 -8 32
-8z m245 -17 c22 -24 23 -31 23 -183 0 -154 -1 -159 -24 -184 -34 -36 -111
-37 -146 -1 -24 24 -25 28 -25 182 0 176 6 196 62 211 46 12 83 3 110 -25z
m491 -4 c9 -12 17 -34 17 -50 0 -25 -4 -29 -29 -29 -23 0 -30 5 -33 23 -2 15
-11 23 -29 25 -50 6 -43 -65 11 -113 53 -47 80 -96 80 -147 0 -67 -30 -98 -95
-98 -61 0 -95 32 -95 90 0 38 2 40 29 40 26 0 30 -4 33 -32 2 -26 8 -34 27
-36 58 -9 49 52 -20 125 -27 28 -54 64 -59 78 -15 39 -12 97 5 123 32 44 121
45 158 1z m887 6 c12 -12 16 -46 18 -162 4 -161 1 -184 -28 -213 -31 -31 -109
-28 -141 6 -23 25 -24 30 -24 184 0 153 1 159 24 184 36 38 113 39 151 1z
m693 -6 c9 -12 17 -34 17 -50 0 -25 -4 -29 -29 -29 -23 0 -30 5 -33 23 -2 15
-11 23 -29 25 -50 6 -43 -65 11 -113 53 -47 80 -96 80 -147 0 -67 -30 -98 -95
-98 -61 0 -95 32 -95 90 0 38 2 40 29 40 26 0 30 -4 33 -32 2 -26 8 -34 27
-36 58 -9 49 52 -20 125 -27 28 -54 64 -59 78 -15 39 -12 97 5 123 32 44 121
45 158 1z m-1889 -89 l31 -115 3 118 3 117 29 0 30 0 0 -210 0 -210 -35 0
c-32 0 -35 3 -46 43 -6 23 -24 87 -40 142 l-27 100 -1 -142 -1 -143 -30 0 -30
0 0 211 0 210 42 -3 42 -3 30 -115z m426 -47 c0 -93 4 -174 9 -181 4 -8 19
-12 32 -10 l24 3 3 178 2 177 30 0 30 0 0 -185 c0 -184 0 -186 -25 -210 -37
-38 -108 -37 -142 1 -22 24 -23 32 -23 210 l0 184 30 0 30 0 0 -167z m250 -13
l0 -180 50 0 c49 0 50 -1 50 -30 l0 -30 -85 0 -85 0 0 210 0 210 35 0 35 0 0
-180z m320 150 c0 -28 -3 -30 -35 -30 l-35 0 0 -180 0 -180 -35 0 -35 0 0 179
0 180 -32 3 c-28 2 -34 8 -36 31 l-3 27 105 0 106 0 0 -30z m435 5 c21 -20 25
-34 25 -83 0 -44 -5 -66 -19 -83 -18 -22 -18 -24 0 -49 12 -17 19 -48 21 -102
l3 -78 -32 0 -33 0 0 59 c0 80 -13 111 -45 111 -25 0 -25 -1 -25 -85 l0 -85
-35 0 -35 0 0 210 0 210 75 0 c67 0 79 -3 100 -25z m255 -5 l0 -30 -60 0 -61
0 3 -57 3 -58 43 -3 c39 -3 42 -5 42 -33 0 -28 -2 -29 -45 -29 l-45 0 0 -60 0
-60 60 0 60 0 0 -30 0 -30 -90 0 -90 0 0 210 0 210 90 0 90 0 0 -30z m910
-305 l0 -115 -110 0 -110 0 0 115 0 115 110 0 110 0 0 -115z m280 0 l0 -115
-115 0 -115 0 0 115 0 115 115 0 115 0 0 -115z m270 0 l0 -115 -115 0 -115 0
0 115 0 115 115 0 115 0 0 -115z"/>
<path d="M2986 2808 c-3 -13 -6 -70 -6 -128 0 -135 5 -152 39 -148 l26 3 0
145 0 145 -26 3 c-20 2 -28 -2 -33 -20z"/>
<path d="M926 2315 c-9 -25 -7 -258 3 -273 4 -8 19 -12 32 -10 l24 3 0 145 0
145 -26 3 c-17 2 -29 -3 -33 -13z"/>
<path d="M2304 2317 c-2 -7 -3 -74 -2 -148 l3 -134 26 -3 c34 -4 39 13 39 148
0 131 -5 150 -36 150 -14 0 -27 -6 -30 -13z"/>
</g>
</svg>
